<svg version="1.2" xmlns="http://www.w3.org/2000/svg" viewBox="0 0 573 661" width="573" height="661"><defs><linearGradient id="P" gradientUnits="userSpaceOnUse"/><linearGradient id="g1" x1="-302.7" y1="187" x2="154.9" y2="-222.7" href="#P"><stop stop-color="#b301ff"/><stop offset="1" stop-color="#01e0ff"/></linearGradient></defs><style>.a{fill:url(#g1)}</style><path class="a" d="m358.5 255.9l-214.5 123.8 0.1 0.1-14.3 8.2v33l28.5 16.5 57-33 200.3-115.6 28.4-16.4v-33l-28.5-16.5zm157.1 57.9l-228.7 132 0.1 65.9q143-82.5 285.9-165v-181.5l-57.3-33v65.9zm-228.7 280.6l-157-90.7v66l157 90.6 28.6-16.4 257.4-148.6v-66l-157.3 90.9zm0-528.3l157.1 90.7v-66l-100-57.7-57.1-33-286 165.1v66zm-228.7 280.6l228.8-132.1-0.1-65.9q-143 82.5-285.9 165v181.5l57.2 33.1v-66z"/></svg>